<?xml version="1.0" encoding="UTF-8"?>
<svg id="Layer_1" data-name="Layer 1" xmlns="http://www.w3.org/2000/svg" viewBox="0 0 24.04 23.22">
  <defs>
    <style>
      .cls-1 {
        fill: #f15a29;
      }
    </style>
  </defs>
  <path class="cls-1" d="m7.47,5.28h3.12v4.51c-1.29.88-3.07,1.35-4.64,1.35-3.44,0-5.95-2.3-5.95-5.57S2.51,0,6.03,0c2.1,0,3.79.73,4.87,2.05l-2.3,2.02c-.67-.78-1.45-1.17-2.39-1.17-1.58,0-2.59,1.02-2.59,2.66s1,2.66,2.54,2.66c.44,0,.87-.08,1.31-.26v-2.69Z"/>
  <path class="cls-1" d="m23.89.02l-2.58,8.07h-2.92l-1.3-4.31-1.37,4.31h-2.92L10.22.02h2.8l1.41,4.59L15.92.02h2.5l1.41,4.64L21.31.02h2.58Z"/>
  <path class="cls-1" d="m.03,11.59h5.73c3.89,0,6.56,2.21,6.56,5.82s-2.67,5.82-6.56,5.82H.03v-11.63Zm5.57,8.57c1.65,0,2.77-.98,2.77-2.76s-1.13-2.76-2.77-2.76h-1.65v5.52h1.65Z"/>
  <path class="cls-1" d="m11.51,21.64l1.51-3.41c1.31.77,3.06,1.27,4.58,1.27,1.33,0,1.81-.28,1.81-.75,0-1.75-7.68-.34-7.68-5.52,0-2.58,2.16-4.68,6.47-4.68,1.87,0,3.79.4,5.24,1.21l-1.41,3.39c-1.37-.69-2.66-1.03-3.87-1.03-1.37,0-1.81.4-1.81.87,0,1.67,7.68.28,7.68,5.4,0,2.54-2.16,4.68-6.47,4.68-2.32,0-4.66-.58-6.05-1.43Z"/>
</svg>